<?xml version="1.0" encoding="utf-8"?>
<svg version="1.1" xmlns="http://www.w3.org/2000/svg" viewBox="0 0 512 512">
  <defs>
    <linearGradient id="bgGrad" x1="0" y1="0" x2="1" y2="1">
      <stop offset="0%" stop-color="#0A4D5C"/>
      <stop offset="100%" stop-color="#083D4A"/>
    </linearGradient>
  </defs>
  <!-- Rounded square background -->
  <rect width="512" height="512" rx="108" fill="url(#bgGrad)"/>
  <!-- G letter - bold geometric shape matching uploaded icon -->
  <path d="
    M 256 100
    C 170 100, 100 170, 100 256
    C 100 342, 170 412, 256 412
    C 330 412, 390 368, 408 306
    L 328 306
    C 314 338, 288 356, 256 356
    C 200 356, 156 312, 156 256
    C 156 200, 200 156, 256 156
    C 290 156, 318 174, 334 202
    L 256 202
    L 256 258
    L 412 258
    L 412 202
    C 412 202, 412 100, 256 100
    Z
  " fill="#2EC4B6"/>
  <!-- Yellow accent dot -->
  <circle cx="404" cy="108" r="24" fill="#f7f75e"/>
</svg>
